<?xml version="1.0" encoding="utf-8"?>
<!-- Generator: Adobe Illustrator 17.0.0, SVG Export Plug-In . SVG Version: 6.00 Build 0)  -->
<!DOCTYPE svg PUBLIC "-//W3C//DTD SVG 1.1//EN" "http://www.w3.org/Graphics/SVG/1.1/DTD/svg11.dtd">
<svg version="1.1" id="Layer_1" xmlns="http://www.w3.org/2000/svg" xmlns:xlink="http://www.w3.org/1999/xlink" x="0px" y="0px"
	 width="32px" height="32px" viewBox="0 0 500 500" enable-background="new 0 0 500 500" xml:space="preserve">
<g>
	<polygon points="123.381,222.551 123.381,264.623 154.831,243.587 	"/>
	<polygon points="231.932,192.014 231.932,133.385 133.445,199.039 177.439,228.468 	"/>
	<polygon points="355.561,199.039 257.072,133.385 257.072,192.014 311.569,228.468 	"/>
	<polygon points="133.445,288.135 231.932,353.789 231.932,295.16 177.439,258.713 	"/>
	<polygon points="257.072,295.16 257.072,353.789 355.561,288.135 311.569,258.713 	"/>
	<polygon points="244.501,213.85 200.044,243.587 244.501,273.325 288.961,243.587 	"/>
	<path d="M244.501,7.038C113.863,7.038,7.955,112.942,7.955,243.587c0,130.645,105.908,236.545,236.546,236.545
		c130.645,0,236.549-105.9,236.549-236.545C481.05,112.942,375.145,7.038,244.501,7.038z M390.761,288.151
		c0,0.554-0.039,1.1-0.112,1.647c-0.026,0.177-0.069,0.361-0.1,0.538c-0.065,0.354-0.127,0.708-0.22,1.055
		c-0.054,0.208-0.131,0.407-0.196,0.608c-0.1,0.308-0.199,0.616-0.322,0.924c-0.085,0.207-0.19,0.407-0.281,0.607
		c-0.135,0.285-0.273,0.562-0.427,0.839c-0.112,0.192-0.239,0.385-0.358,0.577c-0.169,0.262-0.342,0.516-0.53,0.762
		c-0.139,0.192-0.281,0.369-0.435,0.546c-0.196,0.23-0.404,0.462-0.624,0.677c-0.165,0.17-0.327,0.339-0.5,0.493
		c-0.227,0.207-0.469,0.407-0.715,0.6c-0.185,0.146-0.37,0.293-0.566,0.431c-0.072,0.047-0.138,0.108-0.211,0.154l-133.688,89.128
		c-2.112,1.408-4.54,2.115-6.975,2.115c-2.428,0-4.859-0.707-6.971-2.115l-133.691-89.128c-0.069-0.046-0.135-0.107-0.204-0.154
		c-0.196-0.138-0.385-0.284-0.569-0.431c-0.246-0.192-0.485-0.393-0.712-0.6c-0.173-0.154-0.338-0.323-0.504-0.493
		c-0.219-0.215-0.423-0.446-0.627-0.677c-0.146-0.177-0.292-0.353-0.431-0.546c-0.185-0.246-0.362-0.5-0.527-0.762
		c-0.127-0.192-0.246-0.385-0.361-0.577c-0.154-0.277-0.292-0.554-0.427-0.839c-0.096-0.2-0.192-0.4-0.281-0.607
		c-0.123-0.308-0.227-0.616-0.323-0.924c-0.069-0.2-0.138-0.4-0.196-0.608c-0.092-0.347-0.154-0.7-0.219-1.055
		c-0.031-0.177-0.077-0.361-0.1-0.538c-0.073-0.547-0.115-1.093-0.115-1.647v-89.128c0-0.554,0.042-1.1,0.115-1.639
		c0.023-0.185,0.069-0.362,0.1-0.546c0.065-0.354,0.127-0.708,0.219-1.054c0.058-0.208,0.127-0.408,0.196-0.608
		c0.096-0.308,0.2-0.615,0.323-0.916c0.088-0.208,0.185-0.416,0.281-0.615c0.135-0.285,0.273-0.562,0.427-0.831
		c0.115-0.2,0.234-0.393,0.361-0.585c0.166-0.261,0.342-0.515,0.527-0.762c0.138-0.185,0.285-0.369,0.431-0.546
		c0.204-0.231,0.408-0.462,0.627-0.677c0.166-0.169,0.331-0.338,0.504-0.493c0.227-0.208,0.466-0.408,0.712-0.6
		c0.185-0.146,0.373-0.292,0.569-0.431c0.069-0.046,0.135-0.108,0.204-0.154L237.53,99.439c4.224-2.816,9.721-2.816,13.946,0
		l133.688,89.128c0.073,0.046,0.139,0.107,0.211,0.154c0.196,0.139,0.381,0.285,0.566,0.431c0.246,0.192,0.488,0.393,0.715,0.6
		c0.173,0.154,0.335,0.323,0.5,0.493c0.22,0.215,0.428,0.446,0.624,0.677c0.153,0.177,0.296,0.361,0.435,0.546
		c0.189,0.247,0.361,0.501,0.53,0.762c0.119,0.192,0.246,0.385,0.358,0.585c0.153,0.269,0.292,0.546,0.427,0.831
		c0.092,0.2,0.196,0.408,0.281,0.615c0.123,0.3,0.223,0.608,0.322,0.916c0.065,0.2,0.143,0.4,0.196,0.608
		c0.093,0.346,0.154,0.7,0.22,1.054c0.03,0.185,0.073,0.362,0.1,0.546c0.073,0.539,0.112,1.085,0.112,1.639V288.151z"/>
	<polygon points="365.624,264.623 365.624,222.551 334.179,243.587 	"/>
</g>
</svg>
