<svg xmlns:dc="http://purl.org/dc/elements/1.1/" xmlns:cc="http://creativecommons.org/ns#" xmlns:rdf="http://www.w3.org/1999/02/22-rdf-syntax-ns#" xmlns:svg="http://www.w3.org/2000/svg" xmlns="http://www.w3.org/2000/svg" xmlns:sodipodi="http://sodipodi.sourceforge.net/DTD/sodipodi-0.dtd" xmlns:inkscape="http://www.inkscape.org/namespaces/inkscape" version="1.1" id="Capa_1" x="0px" y="0px" width="100px" height="100px" viewBox="0 0 100 100" enable-background="new 0 0 100 100" xml:space="preserve" inkscape:version="0.48.4 r9939" sodipodi:docname="bird.svg"><metadata id="metadata10"><rdf:RDF><cc:Work rdf:about=""><dc:format>image/svg+xml</dc:format><dc:type rdf:resource="http://purl.org/dc/dcmitype/StillImage"/><dc:title/></cc:Work></rdf:RDF></metadata><defs id="defs8"/><sodipodi:namedview pagecolor="#ffffff" bordercolor="#666666" borderopacity="1" objecttolerance="10" gridtolerance="10" guidetolerance="10" inkscape:pageopacity="0" inkscape:pageshadow="2" inkscape:window-width="1920" inkscape:window-height="1021" id="namedview6" showgrid="false" inkscape:zoom="1.4142136" inkscape:cx="52.75" inkscape:cy="40" inkscape:window-x="0" inkscape:window-y="27" inkscape:window-maximized="1" inkscape:current-layer="Capa_1" showguides="true" inkscape:guide-bbox="true"/><path style="fill:#000000;fill-opacity:1;fill-rule:evenodd;stroke:none" d="m 1.0155802,60.496294 c -0.46254114,13.395173 9.5262688,18.909507 9.5262688,18.909507 0.217689,-0.106435 3.987892,-2.048295 7.008612,-10.932615 z" id="path5166-8" inkscape:connector-curvature="0" sodipodi:nodetypes="cccc"/><path inkscape:connector-curvature="0" style="fill:#000000;fill-opacity:1;fill-rule:evenodd;stroke:none" d="m 57.288337,10.000003 c -9.609838,0 -34.24025,3.231188 -35.009037,34.614014 -0.768775,31.382791 -10.717052,35.967236 -10.717052,35.967236 35.672958,19.072828 81.512622,11.459569 76.448305,-44.015351 0,-20.519517 -21.112367,-26.565899 -30.722216,-26.565899 z M 70.999359,24.77862 c 5.221538,0 9.458224,4.434525 9.458224,9.899893 0,5.465367 -4.236686,9.899893 -9.458224,9.899893 -5.221538,0 -9.458224,-4.434526 -9.458224,-9.899893 0,-5.465368 4.236686,-9.899893 9.458224,-9.899893 z" id="path5168-8"/><path style="fill:#000000;fill-opacity:1;fill-rule:evenodd;stroke:none" d="m 89.167586,37.563014 c 0.479874,5.921577 0.381356,11.29455 -0.238156,16.13184 0.01753,0.01971 0.01633,0.05151 0.03397,0.07122 l 10.036605,-8.22617 -9.83247,-7.976892 z" id="path5170-2" inkscape:connector-curvature="0"/><path inkscape:connector-curvature="0" style="fill:#000000;fill-opacity:1;fill-rule:nonzero;stroke:none;stroke-width:1px;marker:none;visibility:visible;display:inline;overflow:visible;enable-background:accumulate" d="m 75.178549,34.679561 c 0,2.421363 -1.875332,4.384271 -4.188673,4.384271 -2.31334,0 -4.188674,-1.962908 -4.188674,-4.384271 0,-2.421374 1.875334,-4.384282 4.188674,-4.384282 2.313341,0 4.188673,1.962908 4.188673,4.384282 z" id="path5174-3"/></svg>